<svg id="レイヤー_1" data-name="レイヤー 1" xmlns="http://www.w3.org/2000/svg" viewBox="0 0 1000 1000"><defs><style>.cls-1{fill:#7eb6e1;}.cls-2{fill:#5076c2;}</style></defs><title>icon_purescript2</title><path class="cls-1" d="M552.58,273.68l-30.51,32.67V162.86l30.51-32.67Zm-107,0,30.51,32.67V162.86l-30.51-32.67ZM399.67,130.2l-30.52,32.66V306.34l30.52-32.66Zm30.2,191.25L408.28,343l80,80a15.29,15.29,0,0,0,21.57,0l80-80-21.57-21.58L499.1,390.69Zm-18-308-80,80,21.58,21.57,69.24-69.2,69.24,69.2,21.58-21.57-80-80a15.26,15.26,0,0,0-21.58,0Z"/><path class="cls-2" d="M330.29,341.3l13,42.76L219.07,312.32l-13-42.76Zm-53.48,92.63,43.55-10.08L196.1,352.1l-43.56,10.09ZM129.58,402l13,42.76,124.25,71.74-13-42.77ZM310.3,471.46,318.2,501l109.33-29.29A15.28,15.28,0,0,0,438.31,453L409,343.65l-29.48,7.89,25.34,94.58ZM34.58,333.07,63.85,442.39l29.48-7.91L68,339.92l94.55-25.36-7.9-29.48L45.38,314.38a15.26,15.26,0,0,0-10.8,18.69Z"/><path class="cls-1" d="M277.71,567.63l43.55,10.08L197,649.46l-43.55-10.09Zm53.48,92.63,13-42.76L220,689.24l-13,42.76ZM229.91,771.79l43.55,10.1,124.25-71.74-43.55-10.1ZM380.44,650l29.48,7.9,29.3-109.32a15.29,15.29,0,0,0-10.79-18.68L319.11,500.62l-7.91,29.47,94.58,25.35ZM122.73,819.6,232,848.91l7.89-29.48-94.54-25.36,25.3-94.56-29.47-7.9L111.93,800.9a15.28,15.28,0,0,0,10.8,18.7Z"/><path class="cls-2" d="M447.42,726.32l30.51-32.67V837.14l-30.51,32.67Zm107,0-30.51-32.67V837.14l30.51,32.67Zm46,143.48,30.52-32.66V693.66l-30.52,32.66Zm-30.2-191.25L591.72,657l-80-80a15.29,15.29,0,0,0-21.57,0l-80,80,21.57,21.58,69.24-69.24Zm18,308,80-80L646.6,885l-69.24,69.2L508.12,885l-21.58,21.57,80,80a15.26,15.26,0,0,0,21.58,0Z"/><path class="cls-1" d="M669.71,658.7l-13-42.76,124.26,71.74L794,730.44Zm53.48-92.63-43.55,10.08L803.9,647.9l43.56-10.09ZM870.42,598l-13-42.76L733.14,483.51l13,42.77ZM689.7,528.54l-7.9-29.49L572.47,528.34A15.28,15.28,0,0,0,561.69,547L591,656.35l29.48-7.89-25.34-94.58ZM965.42,666.93,936.15,557.61l-29.48,7.91L932,660.08l-94.55,25.36,7.9,29.48,109.29-29.3a15.26,15.26,0,0,0,10.8-18.69Z"/><path class="cls-2" d="M722.29,432.37l-43.55-10.08L803,350.54l43.55,10.09Zm-53.48-92.63-13,42.76L780,310.76l13-42.76ZM770.09,228.21l-43.55-10.1L602.29,289.85,645.84,300ZM619.56,350l-29.48-7.9-29.3,109.32a15.29,15.29,0,0,0,10.79,18.68l109.32,29.29,7.91-29.47-94.58-25.35ZM877.27,180.4,768,151.09l-7.89,29.48,94.54,25.36-25.3,94.56,29.47,7.9L888.07,199.1a15.28,15.28,0,0,0-10.8-18.7Z"/></svg>